<mxfile host="app.diagrams.net" modified="2021-11-09T12:42:49.751Z" agent="5.0 (X11; Linux x86_64) AppleWebKit/537.36 (KHTML, like Gecko) Chrome/93.0.4577.63 Safari/537.36" etag="-hIBLVoBTiCizlq2dRQX" version="15.7.0" type="github">
  <diagram name="Page-1" id="c7488fd3-1785-93aa-aadb-54a6760d102a">
    <mxGraphModel dx="1350" dy="806" grid="1" gridSize="10" guides="1" tooltips="1" connect="1" arrows="1" fold="1" page="1" pageScale="1" pageWidth="1100" pageHeight="850" background="none" math="0" shadow="0">
      <root>
        <mxCell id="0" />
        <mxCell id="1" parent="0" />
        <mxCell id="jkEDnfAXK0N-5c7ANe-G-67" value="相册扫描文件更新数据库" style="swimlane;html=1;childLayout=stackLayout;horizontal=1;startSize=20;horizontalStack=0;rounded=0;shadow=0;labelBackgroundColor=none;strokeWidth=1;fontFamily=Verdana;fontSize=8;align=center;" vertex="1" parent="1">
          <mxGeometry x="110" y="60" width="870" height="860" as="geometry" />
        </mxCell>
        <mxCell id="jkEDnfAXK0N-5c7ANe-G-69" value="FileSystemtracker" style="swimlane;html=1;startSize=20;horizontal=0;" vertex="1" parent="jkEDnfAXK0N-5c7ANe-G-67">
          <mxGeometry y="20" width="870" height="410" as="geometry" />
        </mxCell>
        <mxCell id="jkEDnfAXK0N-5c7ANe-G-102" value="emit 获取数据库数据" style="rounded=1;whiteSpace=wrap;html=1;" vertex="1" parent="jkEDnfAXK0N-5c7ANe-G-69">
          <mxGeometry x="40" y="70" width="80" height="30" as="geometry" />
        </mxCell>
        <mxCell id="jkEDnfAXK0N-5c7ANe-G-119" style="edgeStyle=orthogonalEdgeStyle;rounded=0;orthogonalLoop=1;jettySize=auto;html=1;exitX=1;exitY=0.5;exitDx=0;exitDy=0;entryX=0;entryY=0.5;entryDx=0;entryDy=0;" edge="1" parent="jkEDnfAXK0N-5c7ANe-G-69" source="jkEDnfAXK0N-5c7ANe-G-105" target="jkEDnfAXK0N-5c7ANe-G-109">
          <mxGeometry relative="1" as="geometry" />
        </mxCell>
        <mxCell id="jkEDnfAXK0N-5c7ANe-G-105" value="缓存数据库数据" style="whiteSpace=wrap;html=1;rounded=1;" vertex="1" parent="jkEDnfAXK0N-5c7ANe-G-69">
          <mxGeometry x="170" y="70" width="100" height="30" as="geometry" />
        </mxCell>
        <mxCell id="jkEDnfAXK0N-5c7ANe-G-118" style="edgeStyle=orthogonalEdgeStyle;rounded=0;orthogonalLoop=1;jettySize=auto;html=1;exitX=0;exitY=0.5;exitDx=0;exitDy=0;entryX=1;entryY=0.5;entryDx=0;entryDy=0;" edge="1" parent="jkEDnfAXK0N-5c7ANe-G-69" source="jkEDnfAXK0N-5c7ANe-G-109" target="jkEDnfAXK0N-5c7ANe-G-105">
          <mxGeometry relative="1" as="geometry" />
        </mxCell>
        <mxCell id="jkEDnfAXK0N-5c7ANe-G-109" value="对比数据" style="whiteSpace=wrap;html=1;rounded=1;" vertex="1" parent="jkEDnfAXK0N-5c7ANe-G-69">
          <mxGeometry x="350" y="230" width="100" height="30" as="geometry" />
        </mxCell>
        <mxCell id="jkEDnfAXK0N-5c7ANe-G-117" style="edgeStyle=orthogonalEdgeStyle;rounded=0;orthogonalLoop=1;jettySize=auto;html=1;exitX=0.5;exitY=1;exitDx=0;exitDy=0;" edge="1" parent="jkEDnfAXK0N-5c7ANe-G-69" source="jkEDnfAXK0N-5c7ANe-G-111" target="jkEDnfAXK0N-5c7ANe-G-109">
          <mxGeometry relative="1" as="geometry" />
        </mxCell>
        <mxCell id="jkEDnfAXK0N-5c7ANe-G-111" value="isPhoto || isVideo" style="rhombus;whiteSpace=wrap;html=1;rounded=1;" vertex="1" parent="jkEDnfAXK0N-5c7ANe-G-69">
          <mxGeometry x="335" y="120" width="130" height="70" as="geometry" />
        </mxCell>
        <mxCell id="jkEDnfAXK0N-5c7ANe-G-120" value="!isExist" style="rhombus;whiteSpace=wrap;html=1;rounded=1;" vertex="1" parent="jkEDnfAXK0N-5c7ANe-G-69">
          <mxGeometry x="355" y="280" width="90" height="50" as="geometry" />
        </mxCell>
        <mxCell id="jkEDnfAXK0N-5c7ANe-G-121" value="" style="edgeStyle=orthogonalEdgeStyle;rounded=0;orthogonalLoop=1;jettySize=auto;html=1;" edge="1" parent="jkEDnfAXK0N-5c7ANe-G-69" source="jkEDnfAXK0N-5c7ANe-G-109" target="jkEDnfAXK0N-5c7ANe-G-120">
          <mxGeometry relative="1" as="geometry" />
        </mxCell>
        <mxCell id="jkEDnfAXK0N-5c7ANe-G-125" value="" style="rounded=0;whiteSpace=wrap;html=1;gradientDirection=north;fillColor=none;dashed=1;" vertex="1" parent="jkEDnfAXK0N-5c7ANe-G-69">
          <mxGeometry x="300" y="105" width="200" height="280" as="geometry" />
        </mxCell>
        <mxCell id="jkEDnfAXK0N-5c7ANe-G-73" value="thread 获取图片和视频信息" style="swimlane;html=1;startSize=20;horizontal=0;" vertex="1" parent="jkEDnfAXK0N-5c7ANe-G-67">
          <mxGeometry y="430" width="870" height="170" as="geometry" />
        </mxCell>
        <mxCell id="jkEDnfAXK0N-5c7ANe-G-122" value="new thread addMedia" style="whiteSpace=wrap;html=1;rounded=1;" vertex="1" parent="jkEDnfAXK0N-5c7ANe-G-73">
          <mxGeometry x="340" y="30" width="120" height="35" as="geometry" />
        </mxCell>
        <mxCell id="jkEDnfAXK0N-5c7ANe-G-126" value="getMediaInfo" style="whiteSpace=wrap;html=1;rounded=1;" vertex="1" parent="jkEDnfAXK0N-5c7ANe-G-73">
          <mxGeometry x="340" y="100" width="120" height="35" as="geometry" />
        </mxCell>
        <mxCell id="jkEDnfAXK0N-5c7ANe-G-127" value="" style="edgeStyle=orthogonalEdgeStyle;rounded=0;orthogonalLoop=1;jettySize=auto;html=1;" edge="1" parent="jkEDnfAXK0N-5c7ANe-G-73" source="jkEDnfAXK0N-5c7ANe-G-122" target="jkEDnfAXK0N-5c7ANe-G-126">
          <mxGeometry relative="1" as="geometry" />
        </mxCell>
        <mxCell id="jkEDnfAXK0N-5c7ANe-G-135" value="remove data" style="whiteSpace=wrap;html=1;rounded=1;" vertex="1" parent="jkEDnfAXK0N-5c7ANe-G-73">
          <mxGeometry x="560" y="30" width="120" height="35" as="geometry" />
        </mxCell>
        <mxCell id="jkEDnfAXK0N-5c7ANe-G-137" value="update data" style="whiteSpace=wrap;html=1;rounded=1;" vertex="1" parent="jkEDnfAXK0N-5c7ANe-G-73">
          <mxGeometry x="720" y="30" width="120" height="35" as="geometry" />
        </mxCell>
        <mxCell id="jkEDnfAXK0N-5c7ANe-G-138" value="getMediaInfo" style="whiteSpace=wrap;html=1;rounded=1;" vertex="1" parent="jkEDnfAXK0N-5c7ANe-G-73">
          <mxGeometry x="720" y="100" width="120" height="35" as="geometry" />
        </mxCell>
        <mxCell id="jkEDnfAXK0N-5c7ANe-G-139" value="" style="edgeStyle=orthogonalEdgeStyle;rounded=0;orthogonalLoop=1;jettySize=auto;html=1;" edge="1" parent="jkEDnfAXK0N-5c7ANe-G-73" source="jkEDnfAXK0N-5c7ANe-G-137" target="jkEDnfAXK0N-5c7ANe-G-138">
          <mxGeometry relative="1" as="geometry" />
        </mxCell>
        <mxCell id="jkEDnfAXK0N-5c7ANe-G-104" value="" style="edgeStyle=orthogonalEdgeStyle;rounded=0;orthogonalLoop=1;jettySize=auto;html=1;" edge="1" parent="jkEDnfAXK0N-5c7ANe-G-67" source="jkEDnfAXK0N-5c7ANe-G-102" target="jkEDnfAXK0N-5c7ANe-G-103">
          <mxGeometry relative="1" as="geometry" />
        </mxCell>
        <mxCell id="jkEDnfAXK0N-5c7ANe-G-106" value="" style="edgeStyle=orthogonalEdgeStyle;rounded=0;orthogonalLoop=1;jettySize=auto;html=1;" edge="1" parent="jkEDnfAXK0N-5c7ANe-G-67" source="jkEDnfAXK0N-5c7ANe-G-103" target="jkEDnfAXK0N-5c7ANe-G-105">
          <mxGeometry relative="1" as="geometry" />
        </mxCell>
        <mxCell id="jkEDnfAXK0N-5c7ANe-G-123" value="" style="edgeStyle=orthogonalEdgeStyle;rounded=0;orthogonalLoop=1;jettySize=auto;html=1;" edge="1" parent="jkEDnfAXK0N-5c7ANe-G-67" source="jkEDnfAXK0N-5c7ANe-G-120" target="jkEDnfAXK0N-5c7ANe-G-122">
          <mxGeometry relative="1" as="geometry" />
        </mxCell>
        <mxCell id="jkEDnfAXK0N-5c7ANe-G-129" value="" style="edgeStyle=orthogonalEdgeStyle;rounded=0;orthogonalLoop=1;jettySize=auto;html=1;" edge="1" parent="jkEDnfAXK0N-5c7ANe-G-67" source="jkEDnfAXK0N-5c7ANe-G-126" target="jkEDnfAXK0N-5c7ANe-G-128">
          <mxGeometry relative="1" as="geometry" />
        </mxCell>
        <mxCell id="jkEDnfAXK0N-5c7ANe-G-90" value="mediaStorage" style="swimlane;html=1;startSize=20;horizontal=0;" vertex="1" parent="jkEDnfAXK0N-5c7ANe-G-67">
          <mxGeometry y="600" width="870" height="260" as="geometry">
            <mxRectangle y="320" width="820" height="20" as="alternateBounds" />
          </mxGeometry>
        </mxCell>
        <mxCell id="jkEDnfAXK0N-5c7ANe-G-103" value="sql 查询所有数据" style="whiteSpace=wrap;html=1;rounded=1;" vertex="1" parent="jkEDnfAXK0N-5c7ANe-G-90">
          <mxGeometry x="35" y="90" width="90" height="30" as="geometry" />
        </mxCell>
        <mxCell id="jkEDnfAXK0N-5c7ANe-G-142" style="edgeStyle=orthogonalEdgeStyle;rounded=0;orthogonalLoop=1;jettySize=auto;html=1;exitX=0;exitY=0.5;exitDx=0;exitDy=0;entryX=0.5;entryY=1;entryDx=0;entryDy=0;" edge="1" parent="jkEDnfAXK0N-5c7ANe-G-90" source="jkEDnfAXK0N-5c7ANe-G-128" target="jkEDnfAXK0N-5c7ANe-G-103">
          <mxGeometry relative="1" as="geometry" />
        </mxCell>
        <mxCell id="jkEDnfAXK0N-5c7ANe-G-128" value="sql add data" style="whiteSpace=wrap;html=1;rounded=1;" vertex="1" parent="jkEDnfAXK0N-5c7ANe-G-90">
          <mxGeometry x="340" y="87.5" width="120" height="35" as="geometry" />
        </mxCell>
        <mxCell id="jkEDnfAXK0N-5c7ANe-G-131" value="sql remove data" style="whiteSpace=wrap;html=1;rounded=1;" vertex="1" parent="jkEDnfAXK0N-5c7ANe-G-90">
          <mxGeometry x="340" y="150" width="120" height="35" as="geometry" />
        </mxCell>
        <mxCell id="jkEDnfAXK0N-5c7ANe-G-146" style="edgeStyle=orthogonalEdgeStyle;rounded=0;orthogonalLoop=1;jettySize=auto;html=1;exitX=0;exitY=0.5;exitDx=0;exitDy=0;entryX=0.5;entryY=1;entryDx=0;entryDy=0;" edge="1" parent="jkEDnfAXK0N-5c7ANe-G-90" source="jkEDnfAXK0N-5c7ANe-G-132" target="jkEDnfAXK0N-5c7ANe-G-103">
          <mxGeometry relative="1" as="geometry" />
        </mxCell>
        <mxCell id="jkEDnfAXK0N-5c7ANe-G-132" value="sql update data" style="whiteSpace=wrap;html=1;rounded=1;" vertex="1" parent="jkEDnfAXK0N-5c7ANe-G-90">
          <mxGeometry x="340" y="210" width="120" height="35" as="geometry" />
        </mxCell>
        <mxCell id="jkEDnfAXK0N-5c7ANe-G-136" style="edgeStyle=orthogonalEdgeStyle;rounded=0;orthogonalLoop=1;jettySize=auto;html=1;exitX=0.5;exitY=1;exitDx=0;exitDy=0;entryX=1;entryY=0.75;entryDx=0;entryDy=0;" edge="1" parent="jkEDnfAXK0N-5c7ANe-G-67" source="jkEDnfAXK0N-5c7ANe-G-135" target="jkEDnfAXK0N-5c7ANe-G-131">
          <mxGeometry relative="1" as="geometry" />
        </mxCell>
        <mxCell id="jkEDnfAXK0N-5c7ANe-G-140" style="edgeStyle=orthogonalEdgeStyle;rounded=0;orthogonalLoop=1;jettySize=auto;html=1;exitX=0.5;exitY=1;exitDx=0;exitDy=0;entryX=1;entryY=0.75;entryDx=0;entryDy=0;" edge="1" parent="jkEDnfAXK0N-5c7ANe-G-67" source="jkEDnfAXK0N-5c7ANe-G-138" target="jkEDnfAXK0N-5c7ANe-G-132">
          <mxGeometry relative="1" as="geometry" />
        </mxCell>
        <mxCell id="jkEDnfAXK0N-5c7ANe-G-112" value="" style="edgeStyle=orthogonalEdgeStyle;rounded=0;orthogonalLoop=1;jettySize=auto;html=1;" edge="1" parent="1" source="jkEDnfAXK0N-5c7ANe-G-107" target="jkEDnfAXK0N-5c7ANe-G-111">
          <mxGeometry relative="1" as="geometry" />
        </mxCell>
        <mxCell id="jkEDnfAXK0N-5c7ANe-G-148" value="" style="edgeStyle=orthogonalEdgeStyle;rounded=0;orthogonalLoop=1;jettySize=auto;html=1;" edge="1" parent="1" source="jkEDnfAXK0N-5c7ANe-G-107" target="jkEDnfAXK0N-5c7ANe-G-147">
          <mxGeometry relative="1" as="geometry" />
        </mxCell>
        <mxCell id="jkEDnfAXK0N-5c7ANe-G-107" value="扫描文件夹" style="whiteSpace=wrap;html=1;rounded=1;" vertex="1" parent="1">
          <mxGeometry x="460" y="150" width="100" height="30" as="geometry" />
        </mxCell>
        <mxCell id="jkEDnfAXK0N-5c7ANe-G-145" style="edgeStyle=orthogonalEdgeStyle;rounded=0;orthogonalLoop=1;jettySize=auto;html=1;exitX=0;exitY=0.5;exitDx=0;exitDy=0;" edge="1" parent="1" source="jkEDnfAXK0N-5c7ANe-G-131">
          <mxGeometry relative="1" as="geometry">
            <mxPoint x="190" y="780" as="targetPoint" />
          </mxGeometry>
        </mxCell>
        <mxCell id="jkEDnfAXK0N-5c7ANe-G-147" value="扫描结束" style="whiteSpace=wrap;html=1;rounded=1;" vertex="1" parent="1">
          <mxGeometry x="640" y="150" width="100" height="30" as="geometry" />
        </mxCell>
      </root>
    </mxGraphModel>
  </diagram>
</mxfile>
